<svg xmlns="http://www.w3.org/2000/svg" xmlns:xlink="http://www.w3.org/1999/xlink" width="960" height="800" viewBox="0 0 960 800"><rect width="100%" height="100%" fill="#DDDDDD"/><path d="M215.75 377.57L194.25 377.57L194.25 391.91L212.40 391.91L212.40 399.11L194.25 399.11L194.25 418.84L185.20 418.84L185.20 370.40L215.75 370.40L215.75 377.57ZM239.97 409.97L239.97 404.17Q236.39 404.34 233.94 404.79Q231.50 405.24 230.02 405.95Q228.55 406.65 227.91 407.59Q227.28 408.53 227.28 409.63L227.28 409.63Q227.28 411.81 228.57 412.75Q229.86 413.68 231.93 413.68L231.93 413.68Q234.48 413.68 236.34 412.76Q238.20 411.84 239.97 409.97L239.97 409.97ZM222.49 391.91L221.01 389.26Q226.94 383.84 235.28 383.84L235.28 383.84Q238.30 383.84 240.68 384.82Q243.05 385.81 244.70 387.57Q246.34 389.33 247.19 391.78Q248.05 394.22 248.05 397.14L248.05 397.14L248.05 418.84L244.29 418.84Q243.12 418.84 242.49 418.49Q241.85 418.14 241.48 417.07L241.48 417.07L240.74 414.59Q239.44 415.76 238.20 416.65Q236.96 417.54 235.62 418.14Q234.28 418.74 232.75 419.06Q231.23 419.38 229.39 419.38L229.39 419.38Q227.21 419.38 225.37 418.79Q223.52 418.21 222.18 417.03Q220.84 415.86 220.11 414.12Q219.37 412.38 219.37 410.07L219.37 410.07Q219.37 408.76 219.81 407.47Q220.24 406.18 221.23 405.01Q222.22 403.84 223.79 402.80Q225.37 401.76 227.66 400.99Q229.96 400.22 233.00 399.73Q236.05 399.25 239.97 399.15L239.97 399.15L239.97 397.14Q239.97 393.69 238.50 392.03Q237.02 390.37 234.24 390.37L234.24 390.37Q232.23 390.37 230.91 390.84Q229.59 391.31 228.58 391.89Q227.58 392.48 226.76 392.95Q225.94 393.42 224.93 393.42L224.93 393.42Q224.06 393.42 223.46 392.96Q222.85 392.51 222.49 391.91L222.49 391.91ZM256.09 384.47L264.39 384.47L264.39 418.84L256.09 418.84L256.09 384.47ZM265.53 374.46L265.53 374.46Q265.53 375.53 265.10 376.47Q264.66 377.40 263.94 378.11Q263.22 378.81 262.25 379.23Q261.28 379.65 260.17 379.65L260.17 379.65Q259.10 379.65 258.15 379.23Q257.19 378.81 256.49 378.11Q255.78 377.40 255.37 376.47Q254.95 375.53 254.95 374.46L254.95 374.46Q254.95 373.35 255.37 372.38Q255.78 371.41 256.49 370.70Q257.19 370.00 258.15 369.58Q259.10 369.16 260.17 369.16L260.17 369.16Q261.28 369.16 262.25 369.58Q263.22 370.00 263.94 370.70Q264.66 371.41 265.10 372.38Q265.53 373.35 265.53 374.46ZM272.94 369.06L281.21 369.06L281.21 418.84L272.94 418.84L272.94 369.06ZM296.02 397.71L311.63 397.71Q311.63 396.10 311.18 394.67Q310.72 393.25 309.82 392.18Q308.92 391.11 307.53 390.49Q306.13 389.87 304.29 389.87L304.29 389.87Q300.71 389.87 298.65 391.91Q296.59 393.95 296.02 397.71L296.02 397.71ZM317.12 402.70L295.85 402.70Q296.05 405.34 296.79 407.27Q297.53 409.20 298.73 410.45Q299.94 411.71 301.60 412.33Q303.25 412.95 305.26 412.95L305.26 412.95Q307.27 412.95 308.73 412.48Q310.19 412.01 311.28 411.44Q312.37 410.87 313.19 410.40Q314.01 409.93 314.78 409.93L314.78 409.93Q315.82 409.93 316.32 410.70L316.32 410.70L318.70 413.72Q317.32 415.33 315.62 416.42Q313.91 417.50 312.05 418.16Q310.19 418.81 308.26 419.08Q306.34 419.35 304.53 419.35L304.53 419.35Q300.94 419.35 297.86 418.16Q294.78 416.97 292.50 414.64Q290.22 412.31 288.92 408.88Q287.61 405.44 287.61 400.92L287.61 400.92Q287.61 397.40 288.75 394.31Q289.89 391.21 292.01 388.91Q294.14 386.62 297.21 385.28Q300.27 383.94 304.13 383.94L304.13 383.94Q307.37 383.94 310.12 384.98Q312.87 386.01 314.85 388.01Q316.82 390.00 317.94 392.90Q319.07 395.80 319.07 399.51L319.07 399.51Q319.07 401.39 318.66 402.04Q318.26 402.70 317.12 402.70L317.12 402.70ZM346.84 408.66L346.84 393.25Q345.43 391.54 343.77 390.84Q342.11 390.13 340.20 390.13L340.20 390.13Q338.33 390.13 336.82 390.84Q335.31 391.54 334.24 392.96Q333.17 394.39 332.60 396.58Q332.03 398.78 332.03 401.76L332.03 401.76Q332.03 404.77 332.52 406.87Q333.00 408.96 333.91 410.28Q334.81 411.61 336.12 412.19Q337.42 412.78 339.03 412.78L339.03 412.78Q341.61 412.78 343.42 411.71Q345.23 410.64 346.84 408.66L346.84 408.66ZM346.84 369.06L355.11 369.06L355.11 418.84L350.05 418.84Q348.41 418.84 347.98 417.34L347.98 417.34L347.27 414.02Q345.20 416.40 342.50 417.87Q339.80 419.35 336.22 419.35L336.22 419.35Q333.40 419.35 331.06 418.17Q328.71 417.00 327.02 414.77Q325.33 412.55 324.41 409.26Q323.49 405.98 323.49 401.76L323.49 401.76Q323.49 397.94 324.53 394.66Q325.57 391.37 327.51 388.96Q329.45 386.55 332.16 385.19Q334.88 383.84 338.26 383.84L338.26 383.84Q341.14 383.84 343.19 384.74Q345.23 385.65 346.84 387.19L346.84 387.19L346.84 369.06ZM391.02 419.38L391.02 419.38Q386.54 419.38 384.14 416.85Q381.74 414.32 381.74 409.87L381.74 409.87L381.74 390.67L378.23 390.67Q377.56 390.67 377.09 390.23Q376.62 389.80 376.62 388.93L376.62 388.93L376.62 385.65L382.15 384.74L383.89 375.36Q384.06 374.69 384.53 374.32Q384.99 373.95 385.73 373.95L385.73 373.95L390.02 373.95L390.02 384.77L399.20 384.77L399.20 390.67L390.02 390.67L390.02 409.30Q390.02 410.90 390.81 411.81Q391.59 412.71 392.97 412.71L392.97 412.71Q393.74 412.71 394.26 412.53Q394.78 412.34 395.16 412.14Q395.55 411.94 395.85 411.76Q396.15 411.57 396.45 411.57L396.45 411.57Q396.82 411.57 397.05 411.76Q397.29 411.94 397.56 412.31L397.56 412.31L400.04 416.33Q398.23 417.84 395.88 418.61Q393.54 419.38 391.02 419.38ZM419.70 383.94L419.70 383.94Q423.52 383.94 426.65 385.18Q429.78 386.42 432.01 388.69Q434.24 390.97 435.44 394.25Q436.65 397.54 436.65 401.59L436.65 401.59Q436.65 405.68 435.44 408.96Q434.24 412.24 432.01 414.56Q429.78 416.87 426.65 418.11Q423.52 419.35 419.70 419.35L419.70 419.35Q415.85 419.35 412.70 418.11Q409.55 416.87 407.32 414.56Q405.09 412.24 403.87 408.96Q402.65 405.68 402.65 401.59L402.65 401.59Q402.65 397.54 403.87 394.25Q405.09 390.97 407.32 388.69Q409.55 386.42 412.70 385.18Q415.85 383.94 419.70 383.94ZM419.70 412.98L419.70 412.98Q423.99 412.98 426.05 410.10Q428.11 407.22 428.11 401.66L428.11 401.66Q428.11 396.10 426.05 393.18Q423.99 390.27 419.70 390.27L419.70 390.27Q415.34 390.27 413.25 393.20Q411.16 396.13 411.16 401.66L411.16 401.66Q411.16 407.19 413.25 410.08Q415.34 412.98 419.70 412.98ZM459.36 369.06L467.64 369.06L467.64 418.84L459.36 418.84L459.36 369.06ZM491.12 383.94L491.12 383.94Q494.94 383.94 498.07 385.18Q501.21 386.42 503.43 388.69Q505.66 390.97 506.87 394.25Q508.07 397.54 508.07 401.59L508.07 401.59Q508.07 405.68 506.87 408.96Q505.66 412.24 503.43 414.56Q501.21 416.87 498.07 418.11Q494.94 419.35 491.12 419.35L491.12 419.35Q487.27 419.35 484.12 418.11Q480.97 416.87 478.74 414.56Q476.52 412.24 475.29 408.96Q474.07 405.68 474.07 401.59L474.07 401.59Q474.07 397.54 475.29 394.25Q476.52 390.97 478.74 388.69Q480.97 386.42 484.12 385.18Q487.27 383.94 491.12 383.94ZM491.12 412.98L491.12 412.98Q495.41 412.98 497.47 410.10Q499.53 407.22 499.53 401.66L499.53 401.66Q499.53 396.10 497.47 393.18Q495.41 390.27 491.12 390.27L491.12 390.27Q486.77 390.27 484.67 393.20Q482.58 396.13 482.58 401.66L482.58 401.66Q482.58 407.19 484.67 410.08Q486.77 412.98 491.12 412.98ZM532.56 409.97L532.56 404.17Q528.98 404.34 526.53 404.79Q524.09 405.24 522.61 405.95Q521.14 406.65 520.50 407.59Q519.87 408.53 519.87 409.63L519.87 409.63Q519.87 411.81 521.15 412.75Q522.44 413.68 524.52 413.68L524.52 413.68Q527.07 413.68 528.93 412.76Q530.79 411.84 532.56 409.97L532.56 409.97ZM515.07 391.91L513.60 389.26Q519.53 383.84 527.87 383.84L527.87 383.84Q530.89 383.84 533.26 384.82Q535.64 385.81 537.28 387.57Q538.93 389.33 539.78 391.78Q540.63 394.22 540.63 397.14L540.63 397.14L540.63 418.84L536.88 418.84Q535.71 418.84 535.07 418.49Q534.44 418.14 534.07 417.07L534.07 417.07L533.33 414.59Q532.03 415.76 530.79 416.65Q529.55 417.54 528.21 418.14Q526.87 418.74 525.34 419.06Q523.82 419.38 521.98 419.38L521.98 419.38Q519.80 419.38 517.96 418.79Q516.11 418.21 514.77 417.03Q513.43 415.86 512.70 414.12Q511.96 412.38 511.96 410.07L511.96 410.07Q511.96 408.76 512.39 407.47Q512.83 406.18 513.82 405.01Q514.81 403.84 516.38 402.80Q517.96 401.76 520.25 400.99Q522.54 400.22 525.59 399.73Q528.64 399.25 532.56 399.15L532.56 399.15L532.56 397.14Q532.56 393.69 531.09 392.03Q529.61 390.37 526.83 390.37L526.83 390.37Q524.82 390.37 523.50 390.84Q522.18 391.31 521.17 391.89Q520.17 392.48 519.35 392.95Q518.52 393.42 517.52 393.42L517.52 393.42Q516.65 393.42 516.05 392.96Q515.44 392.51 515.07 391.91L515.07 391.91ZM569.98 408.66L569.98 393.25Q568.57 391.54 566.92 390.84Q565.26 390.13 563.35 390.13L563.35 390.13Q561.47 390.13 559.96 390.84Q558.46 391.54 557.39 392.96Q556.31 394.39 555.74 396.58Q555.17 398.78 555.17 401.76L555.17 401.76Q555.17 404.77 555.66 406.87Q556.15 408.96 557.05 410.28Q557.95 411.61 559.26 412.19Q560.57 412.78 562.18 412.78L562.18 412.78Q564.76 412.78 566.56 411.71Q568.37 410.64 569.98 408.66L569.98 408.66ZM569.98 369.06L578.26 369.06L578.26 418.84L573.20 418.84Q571.56 418.84 571.12 417.34L571.12 417.34L570.42 414.02Q568.34 416.40 565.64 417.87Q562.95 419.35 559.36 419.35L559.36 419.35Q556.55 419.35 554.20 418.17Q551.86 417.00 550.17 414.77Q548.47 412.55 547.55 409.26Q546.63 405.98 546.63 401.76L546.63 401.76Q546.63 397.94 547.67 394.66Q548.71 391.37 550.65 388.96Q552.59 386.55 555.31 385.19Q558.02 383.84 561.41 383.84L561.41 383.84Q564.29 383.84 566.33 384.74Q568.37 385.65 569.98 387.19L569.98 387.19L569.98 369.06ZM602.98 384.47L611.29 384.47L611.29 418.84L602.98 418.84L602.98 384.47ZM612.43 374.46L612.43 374.46Q612.43 375.53 611.99 376.47Q611.55 377.40 610.83 378.11Q610.11 378.81 609.14 379.23Q608.17 379.65 607.07 379.65L607.07 379.65Q605.99 379.65 605.04 379.23Q604.08 378.81 603.38 378.11Q602.68 377.40 602.26 376.47Q601.84 375.53 601.84 374.46L601.84 374.46Q601.84 373.35 602.26 372.38Q602.68 371.41 603.38 370.70Q604.08 370.00 605.04 369.58Q605.99 369.16 607.07 369.16L607.07 369.16Q608.17 369.16 609.14 369.58Q610.11 370.00 610.83 370.70Q611.55 371.41 611.99 372.38Q612.43 373.35 612.43 374.46ZM628.00 418.84L619.73 418.84L619.73 384.47L624.79 384.47Q626.40 384.47 626.90 385.98L626.90 385.98L627.43 388.53Q628.34 387.52 629.33 386.68Q630.31 385.85 631.44 385.24Q632.56 384.64 633.85 384.29Q635.14 383.94 636.68 383.94L636.68 383.94Q639.93 383.94 642.02 385.70Q644.12 387.45 645.16 390.37L645.16 390.37Q645.96 388.66 647.17 387.44Q648.37 386.21 649.81 385.44Q651.25 384.67 652.88 384.31Q654.50 383.94 656.14 383.94L656.14 383.94Q658.99 383.94 661.20 384.81Q663.41 385.68 664.92 387.35Q666.43 389.03 667.21 391.44Q668.00 393.85 668.00 396.97L668.00 396.97L668.00 418.84L659.73 418.84L659.73 396.97Q659.73 393.69 658.29 392.03Q656.85 390.37 654.07 390.37L654.07 390.37Q652.79 390.37 651.70 390.80Q650.62 391.24 649.79 392.06Q648.97 392.88 648.51 394.12Q648.04 395.36 648.04 396.97L648.04 396.97L648.04 418.84L639.73 418.84L639.73 396.97Q639.73 393.52 638.34 391.94Q636.95 390.37 634.27 390.37L634.27 390.37Q632.46 390.37 630.90 391.26Q629.34 392.14 628.00 393.69L628.00 393.69L628.00 418.84ZM694.00 409.97L694.00 404.17Q690.41 404.34 687.97 404.79Q685.52 405.24 684.05 405.95Q682.57 406.65 681.94 407.59Q681.30 408.53 681.30 409.63L681.30 409.63Q681.30 411.81 682.59 412.75Q683.88 413.68 685.96 413.68L685.96 413.68Q688.50 413.68 690.36 412.76Q692.22 411.84 694.00 409.97L694.00 409.97ZM676.51 391.91L675.04 389.26Q680.97 383.84 689.31 383.84L689.31 383.84Q692.32 383.84 694.70 384.82Q697.08 385.81 698.72 387.57Q700.36 389.33 701.22 391.78Q702.07 394.22 702.07 397.14L702.07 397.14L702.07 418.84L698.32 418.84Q697.15 418.84 696.51 418.49Q695.87 418.14 695.51 417.07L695.51 417.07L694.77 414.59Q693.46 415.76 692.22 416.65Q690.98 417.54 689.64 418.14Q688.30 418.74 686.78 419.06Q685.25 419.38 683.41 419.38L683.41 419.38Q681.23 419.38 679.39 418.79Q677.55 418.21 676.21 417.03Q674.87 415.86 674.13 414.12Q673.40 412.38 673.40 410.07L673.40 410.07Q673.40 408.76 673.83 407.47Q674.27 406.18 675.25 405.01Q676.24 403.84 677.82 402.80Q679.39 401.76 681.69 400.99Q683.98 400.22 687.03 399.73Q690.08 399.25 694.00 399.15L694.00 399.15L694.00 397.14Q694.00 393.69 692.52 392.03Q691.05 390.37 688.27 390.37L688.27 390.37Q686.26 390.37 684.94 390.84Q683.61 391.31 682.61 391.89Q681.60 392.48 680.78 392.95Q679.96 393.42 678.96 393.42L678.96 393.42Q678.09 393.42 677.48 392.96Q676.88 392.51 676.51 391.91L676.51 391.91ZM722.41 400.82L722.41 400.82Q723.95 400.82 725.09 400.40Q726.23 399.98 726.98 399.25Q727.73 398.51 728.12 397.47Q728.50 396.43 728.50 395.19L728.50 395.19Q728.50 392.65 726.98 391.16Q725.45 389.67 722.41 389.67L722.41 389.67Q719.36 389.67 717.83 391.16Q716.31 392.65 716.31 395.19L716.31 395.19Q716.31 396.40 716.69 397.44Q717.08 398.48 717.83 399.23Q718.59 399.98 719.74 400.40Q720.90 400.82 722.41 400.82ZM731.75 420.38L731.75 420.38Q731.75 419.38 731.15 418.74Q730.55 418.11 729.51 417.75Q728.47 417.40 727.08 417.24Q725.69 417.07 724.13 416.98Q722.57 416.90 720.92 416.83Q719.26 416.77 717.68 416.57L717.68 416.57Q716.31 417.34 715.45 418.37Q714.60 419.41 714.60 420.79L714.60 420.79Q714.60 421.69 715.05 422.48Q715.51 423.27 716.49 423.84Q717.48 424.40 719.06 424.72Q720.63 425.04 722.91 425.04L722.91 425.04Q725.22 425.04 726.90 424.69Q728.57 424.34 729.66 423.72Q730.75 423.10 731.25 422.24Q731.75 421.39 731.75 420.38ZM730.11 385.65L739.99 385.65L739.99 388.73Q739.99 390.20 738.22 390.54L738.22 390.54L735.14 391.11Q735.84 392.88 735.84 394.99L735.84 394.99Q735.84 397.54 734.82 399.60Q733.80 401.66 731.99 403.10Q730.18 404.54 727.72 405.33Q725.25 406.11 722.41 406.11L722.41 406.11Q721.40 406.11 720.46 406.01Q719.53 405.91 718.62 405.75L718.62 405.75Q717.01 406.72 717.01 407.92L717.01 407.92Q717.01 408.96 717.97 409.45Q718.92 409.93 720.50 410.13Q722.07 410.33 724.08 410.38Q726.09 410.44 728.20 410.60Q730.31 410.77 732.32 411.19Q734.33 411.61 735.91 412.51Q737.48 413.42 738.44 414.97Q739.39 416.53 739.39 418.98L739.39 418.98Q739.39 421.26 738.27 423.40Q737.15 425.54 735.02 427.22Q732.89 428.89 729.79 429.92Q726.69 430.94 722.74 430.94L722.74 430.94Q718.86 430.94 715.97 430.18Q713.09 429.43 711.18 428.17Q709.27 426.92 708.34 425.28Q707.40 423.63 707.40 421.86L707.40 421.86Q707.40 419.45 708.86 417.82Q710.31 416.20 712.86 415.23L712.86 415.23Q711.49 414.52 710.68 413.35Q709.88 412.18 709.88 410.27L709.88 410.27Q709.88 409.50 710.16 408.68Q710.45 407.86 711.00 407.05Q711.55 406.25 712.39 405.53Q713.23 404.81 714.37 404.24L714.37 404.24Q711.75 402.83 710.26 400.49Q708.77 398.14 708.77 394.99L708.77 394.99Q708.77 392.45 709.79 390.39Q710.82 388.33 712.64 386.87Q714.47 385.41 716.96 384.64Q719.46 383.87 722.41 383.87L722.41 383.87Q724.62 383.87 726.56 384.32Q728.50 384.77 730.11 385.65L730.11 385.65ZM751.75 397.71L767.36 397.71Q767.36 396.10 766.91 394.67Q766.46 393.25 765.55 392.18Q764.65 391.11 763.26 390.49Q761.87 389.87 760.03 389.87L760.03 389.87Q756.44 389.87 754.38 391.91Q752.32 393.95 751.75 397.71L751.75 397.71ZM772.86 402.70L751.58 402.70Q751.79 405.34 752.52 407.27Q753.26 409.20 754.47 410.45Q755.67 411.71 757.33 412.33Q758.99 412.95 761.00 412.95L761.00 412.95Q763.01 412.95 764.47 412.48Q765.92 412.01 767.01 411.44Q768.10 410.87 768.92 410.40Q769.74 409.93 770.51 409.93L770.51 409.93Q771.55 409.93 772.05 410.70L772.05 410.70L774.43 413.72Q773.06 415.33 771.35 416.42Q769.64 417.50 767.78 418.16Q765.92 418.81 764.00 419.08Q762.07 419.35 760.26 419.35L760.26 419.35Q756.68 419.35 753.59 418.16Q750.51 416.97 748.23 414.64Q745.96 412.31 744.65 408.88Q743.34 405.44 743.34 400.92L743.34 400.92Q743.34 397.40 744.48 394.31Q745.62 391.21 747.75 388.91Q749.88 386.62 752.94 385.28Q756.01 383.94 759.86 383.94L759.86 383.94Q763.11 383.94 765.86 384.98Q768.60 386.01 770.58 388.01Q772.56 390.00 773.68 392.90Q774.80 395.80 774.80 399.51L774.80 399.51Q774.80 401.39 774.40 402.04Q774.00 402.70 772.86 402.70L772.86 402.70Z" fill="#999999"/></svg>